PathFileType	4	(X/Y/Z)	D:\TRACE\v60_Jaco2_6-2-23\JustBodyDRS_Motion3_1-v60.trc
DataRate	CameraRate	NumFrames	NumMarkers	Units	OrigDataRate	OrigDataStartFrame	OrigNumFrames
100.00	100.00	      14	9	mm	100.00	5251	      7000
Frame#	Time	front left toe			Front right toe			aft left toe			aft right toe			Arm			FL body			FR body			AL Body			AR Body			
		X1	Y1	Z1	X2	Y2	Z2	X3	Y3	Z3	X4	Y4	Z4	X5	Y5	Z5	X6	Y6	Z6	X7	Y7	Z7	X8	Y8	Z8	X9	Y9	Z9	

5251	52.500	-174.84956	14.89882	-75.22035	166.07135	21.78933	-93.21848	-225.15645	36.56853	516.91498	183.39111	24.99962	554.96655	18.63924	1204.94800	-97.22556	-70.63153	575.48773	-218.63521	88.06299	573.15802	-214.81100	-85.03690	554.89777	726.43274	65.37445	543.51526	728.32007	
5252	52.510	-175.00557	14.16153	-74.63599	164.51025	29.56772	-91.37467	-220.41269	43.92388	517.53149	183.40379	24.98030	554.90070	20.13860	1206.06360	-95.22543	-69.80327	576.09821	-217.77107	88.81229	573.61615	-214.20882	-84.02680	554.96375	726.32526	66.30820	543.81934	728.82813	
5253	52.520	-175.11989	14.04896	-75.10773	165.12340	38.96502	-89.74541	-216.83977	51.99084	517.92529	183.47626	24.99988	554.83624	21.34327	1206.58362	-93.30179	-69.54824	576.58441	-217.09984	89.36143	573.82990	-213.75365	-83.04093	555.39374	726.88733	67.17333	543.92340	729.28558	
5254	52.530	-175.03156	13.85104	-75.07841	166.28125	50.58934	-89.83764	-216.13152	63.96021	517.86371	183.50063	24.91586	554.90430	22.88308	1206.74634	-92.05383	-69.45609	576.68311	-216.68524	89.49486	573.90125	-213.40814	-82.17615	555.70544	727.75824	68.11802	543.71967	729.58331	
5255	52.540	-175.01241	14.01529	-74.84168	168.06012	62.25955	-90.15887	-216.10165	75.51098	518.59741	183.59848	24.80215	554.84839	23.95748	1206.56396	-91.61191	-69.38367	576.97980	-216.08308	89.66626	573.97668	-212.84195	-80.86900	555.25507	728.28510	69.31494	543.26532	730.29987	
5256	52.550	-174.98833	13.84329	-74.78632	170.86949	74.57128	-89.77457	-217.15088	87.45786	520.09320	183.72975	24.75748	554.81342	24.17851	1206.15405	-91.60072	-69.26131	576.75970	-215.06639	89.00555	573.83838	-211.92421	-79.89669	554.84912	729.13470	70.60151	542.86322	730.72906	
5257	52.560	-175.02472	13.66063	-74.71587	173.19969	86.57751	-88.98300	-215.92632	98.53538	523.18225	183.93289	24.69169	554.64581	24.05626	1205.42590	-91.36669	-69.58508	576.50806	-214.68590	88.58928	573.37451	-211.81126	-78.82221	554.50549	729.94214	71.49620	542.45856	731.23273	
5258	52.570	-175.12779	13.46306	-74.58363	175.51631	97.75379	-87.08668	-215.25597	111.42890	524.68896	184.08635	24.68231	554.54694	23.60406	1205.12976	-91.06110	-69.89615	576.00238	-214.10950	88.42049	572.91833	-211.43698	-77.62112	554.77667	730.56329	72.52142	542.43481	731.73224	
5259	52.580	-175.16624	13.32000	-74.37340	176.52599	108.47598	-85.28989	-213.07845	122.09065	528.02362	184.27893	24.72652	554.60822	23.67180	1204.78650	-90.63957	-69.91601	575.51038	-213.38327	89.01627	572.01385	-210.96571	-76.89134	554.94293	731.10968	73.27643	542.64392	732.16125	
5260	52.590	-175.20357	13.40600	-74.25919	177.34637	118.31616	-83.26852	-210.17839	131.72638	531.19116	184.31958	24.59567	554.58490	24.02615	1204.31433	-90.48729	-70.23171	574.85400	-212.88013	88.72783	571.42590	-210.58591	-75.60004	555.38647	731.62500	74.35588	542.97925	732.58411	
5261	52.600	-175.16951	13.36064	-74.03249	177.82611	126.52207	-81.69601	-207.83847	140.24673	533.90381	184.49232	24.44968	554.66962	24.40765	1203.78967	-90.80341	-70.22240	574.06140	-212.17497	87.73370	570.77191	-210.20319	-74.84064	555.57086	732.14716	75.41234	543.00787	732.91565	
5262	52.610	-175.16174	13.18541	-73.78736	178.39018	134.00200	-80.09929	-205.99030	147.52086	536.42371	184.82013	24.24017	554.75854	25.07994	1202.86450	-91.17790	-70.79692	573.66162	-211.61694	87.55364	570.11023	-209.70499	-74.12991	555.61719	732.90253	76.53870	543.05902	733.30389	
5263	52.620	-175.19255	13.14876	-73.67297	179.28848	139.55911	-78.70221	-204.90781	153.52917	538.64557	185.00468	24.04988	554.80408	25.51535	1202.31055	-91.32304	-71.41750	573.43555	-210.99995	87.22356	569.75507	-209.37260	-73.16570	555.46069	733.70148	77.35925	542.91650	733.83307	
5264	52.630	-175.12286	13.12378	-73.50819	180.81636	142.28241	-77.11663	-204.17621	157.70238	540.48071	185.21466	23.95960	554.90906	25.49053	1202.03235	-91.25130	-71.61931	573.09375	-210.57846	86.94952	569.34161	-209.24712	-72.69437	555.53754	734.05908	77.72319	542.91248	734.05945	
